<svg width="800" height="120" viewBox="0 0 800 120" xmlns="http://www.w3.org/2000/svg">
  <style>
    .b1 { animation: b1 3s ease-in-out infinite alternate; }
    .b2 { animation: b2 4.5s ease-in-out infinite alternate; }
    .b3 { animation: b3 6s ease-in-out infinite alternate; }
    .b4 { animation: b4 7.5s ease-in-out infinite alternate; }
    @keyframes b1 { 0% { opacity: 0.2; filter: drop-shadow(0 0 1px red); } 100% { opacity: 1; filter: drop-shadow(0 0 6px red); } }
    @keyframes b2 { 0% { opacity: 0.3; filter: drop-shadow(0 0 1px red); } 100% { opacity: 1; filter: drop-shadow(0 0 4px red); } }
    @keyframes b3 { 0% { opacity: 0.4; filter: drop-shadow(0 0 1px red); } 100% { opacity: 1; filter: drop-shadow(0 0 8px red); } }
    @keyframes b4 { 0% { opacity: 0.1; filter: drop-shadow(0 0 1px red); } 100% { opacity: 0.8; filter: drop-shadow(0 0 5px red); } }
  </style>
  <g>
    <rect x="12.0" y="72.0" width="6" height="6" fill="#d82828" rx="1" ry="1" class="b3" />
    <rect x="42.0" y="72.0" width="6" height="6" fill="#d82828" rx="1" ry="1" class="b4" />
    <rect x="42.0" y="102.0" width="6" height="6" fill="#d82828" rx="1" ry="1" class="b2" />
    <rect x="42.0" y="112.0" width="6" height="6" fill="#d82828" rx="1" ry="1" class="b4" />
    <rect x="52.0" y="72.0" width="6" height="6" fill="#9e1a1a" rx="1" ry="1" class="b2" />
    <rect x="62.0" y="52.0" width="6" height="6" fill="#9e1a1a" rx="1" ry="1" class="b1" />
    <rect x="62.0" y="102.0" width="6" height="6" fill="#d82828" rx="1" ry="1" class="b3" />
    <rect x="62.0" y="112.0" width="6" height="6" fill="#ff4d4d" rx="1" ry="1" class="b4" />
    <rect x="72.0" y="52.0" width="6" height="6" fill="#5c0f0f" rx="1" ry="1" class="b2" />
    <rect x="72.0" y="62.0" width="6" height="6" fill="#9e1a1a" rx="1" ry="1" class="b3" />
    <rect x="72.0" y="72.0" width="6" height="6" fill="#9e1a1a" rx="1" ry="1" class="b4" />
    <rect x="72.0" y="82.0" width="6" height="6" fill="#ff4d4d" rx="1" ry="1" class="b3" />
    <rect x="72.0" y="92.0" width="6" height="6" fill="#ff4d4d" rx="1" ry="1" class="b3" />
    <rect x="72.0" y="102.0" width="6" height="6" fill="#d82828" rx="1" ry="1" class="b3" />
    <rect x="72.0" y="112.0" width="6" height="6" fill="#d82828" rx="1" ry="1" class="b3" />
    <rect x="82.0" y="52.0" width="6" height="6" fill="#5c0f0f" rx="1" ry="1" class="b2" />
    <rect x="82.0" y="82.0" width="6" height="6" fill="#d82828" rx="1" ry="1" class="b1" />
    <rect x="82.0" y="92.0" width="6" height="6" fill="#5c0f0f" rx="1" ry="1" class="b1" />
    <rect x="82.0" y="102.0" width="6" height="6" fill="#ff4d4d" rx="1" ry="1" class="b1" />
    <rect x="82.0" y="112.0" width="6" height="6" fill="#d82828" rx="1" ry="1" class="b4" />
    <rect x="92.0" y="82.0" width="6" height="6" fill="#ff4d4d" rx="1" ry="1" class="b1" />
    <rect x="92.0" y="92.0" width="6" height="6" fill="#ff4d4d" rx="1" ry="1" class="b3" />
    <rect x="92.0" y="102.0" width="6" height="6" fill="#d82828" rx="1" ry="1" class="b4" />
    <rect x="92.0" y="112.0" width="6" height="6" fill="#ff4d4d" rx="1" ry="1" class="b2" />
    <rect x="102.0" y="52.0" width="6" height="6" fill="#9e1a1a" rx="1" ry="1" class="b4" />
    <rect x="102.0" y="62.0" width="6" height="6" fill="#5c0f0f" rx="1" ry="1" class="b3" />
    <rect x="102.0" y="92.0" width="6" height="6" fill="#ff4d4d" rx="1" ry="1" class="b3" />
    <rect x="102.0" y="102.0" width="6" height="6" fill="#ff4d4d" rx="1" ry="1" class="b2" />
    <rect x="102.0" y="112.0" width="6" height="6" fill="#d82828" rx="1" ry="1" class="b3" />
    <rect x="112.0" y="62.0" width="6" height="6" fill="#d82828" rx="1" ry="1" class="b3" />
    <rect x="112.0" y="72.0" width="6" height="6" fill="#9e1a1a" rx="1" ry="1" class="b4" />
    <rect x="112.0" y="82.0" width="6" height="6" fill="#9e1a1a" rx="1" ry="1" class="b2" />
    <rect x="112.0" y="92.0" width="6" height="6" fill="#d82828" rx="1" ry="1" class="b4" />
    <rect x="112.0" y="102.0" width="6" height="6" fill="#ff4d4d" rx="1" ry="1" class="b3" />
    <rect x="112.0" y="112.0" width="6" height="6" fill="#ff4d4d" rx="1" ry="1" class="b4" />
    <rect x="122.0" y="92.0" width="6" height="6" fill="#ff4d4d" rx="1" ry="1" class="b1" />
    <rect x="122.0" y="102.0" width="6" height="6" fill="#9e1a1a" rx="1" ry="1" class="b2" />
    <rect x="122.0" y="112.0" width="6" height="6" fill="#d82828" rx="1" ry="1" class="b4" />
    <rect x="132.0" y="82.0" width="6" height="6" fill="#9e1a1a" rx="1" ry="1" class="b3" />
    <rect x="132.0" y="92.0" width="6" height="6" fill="#d82828" rx="1" ry="1" class="b3" />
    <rect x="132.0" y="102.0" width="6" height="6" fill="#d82828" rx="1" ry="1" class="b2" />
    <rect x="132.0" y="112.0" width="6" height="6" fill="#d82828" rx="1" ry="1" class="b1" />
    <rect x="142.0" y="52.0" width="6" height="6" fill="#ff4d4d" rx="1" ry="1" class="b1" />
    <rect x="142.0" y="82.0" width="6" height="6" fill="#9e1a1a" rx="1" ry="1" class="b2" />
    <rect x="142.0" y="92.0" width="6" height="6" fill="#d82828" rx="1" ry="1" class="b1" />
    <rect x="142.0" y="102.0" width="6" height="6" fill="#ff4d4d" rx="1" ry="1" class="b3" />
    <rect x="142.0" y="112.0" width="6" height="6" fill="#d82828" rx="1" ry="1" class="b3" />
    <rect x="152.0" y="82.0" width="6" height="6" fill="#d82828" rx="1" ry="1" class="b4" />
    <rect x="152.0" y="92.0" width="6" height="6" fill="#d82828" rx="1" ry="1" class="b4" />
    <rect x="152.0" y="102.0" width="6" height="6" fill="#d82828" rx="1" ry="1" class="b4" />
    <rect x="152.0" y="112.0" width="6" height="6" fill="#9e1a1a" rx="1" ry="1" class="b1" />
    <rect x="162.0" y="72.0" width="6" height="6" fill="#9e1a1a" rx="1" ry="1" class="b1" />
    <rect x="162.0" y="92.0" width="6" height="6" fill="#d82828" rx="1" ry="1" class="b1" />
    <rect x="162.0" y="102.0" width="6" height="6" fill="#ff4d4d" rx="1" ry="1" class="b3" />
    <rect x="162.0" y="112.0" width="6" height="6" fill="#d82828" rx="1" ry="1" class="b3" />
    <rect x="172.0" y="62.0" width="6" height="6" fill="#d82828" rx="1" ry="1" class="b2" />
    <rect x="172.0" y="72.0" width="6" height="6" fill="#5c0f0f" rx="1" ry="1" class="b1" />
    <rect x="172.0" y="82.0" width="6" height="6" fill="#ff4d4d" rx="1" ry="1" class="b2" />
    <rect x="172.0" y="92.0" width="6" height="6" fill="#d82828" rx="1" ry="1" class="b3" />
    <rect x="172.0" y="102.0" width="6" height="6" fill="#d82828" rx="1" ry="1" class="b4" />
    <rect x="172.0" y="112.0" width="6" height="6" fill="#9e1a1a" rx="1" ry="1" class="b3" />
    <rect x="182.0" y="42.0" width="6" height="6" fill="#ff4d4d" rx="1" ry="1" class="b4" />
    <rect x="182.0" y="82.0" width="6" height="6" fill="#9e1a1a" rx="1" ry="1" class="b1" />
    <rect x="182.0" y="92.0" width="6" height="6" fill="#9e1a1a" rx="1" ry="1" class="b3" />
    <rect x="182.0" y="102.0" width="6" height="6" fill="#d82828" rx="1" ry="1" class="b1" />
    <rect x="182.0" y="112.0" width="6" height="6" fill="#ff4d4d" rx="1" ry="1" class="b1" />
    <rect x="192.0" y="52.0" width="6" height="6" fill="#d82828" rx="1" ry="1" class="b2" />
    <rect x="192.0" y="82.0" width="6" height="6" fill="#d82828" rx="1" ry="1" class="b4" />
    <rect x="192.0" y="92.0" width="6" height="6" fill="#5c0f0f" rx="1" ry="1" class="b3" />
    <rect x="192.0" y="102.0" width="6" height="6" fill="#d82828" rx="1" ry="1" class="b3" />
    <rect x="192.0" y="112.0" width="6" height="6" fill="#ff4d4d" rx="1" ry="1" class="b1" />
    <rect x="202.0" y="42.0" width="6" height="6" fill="#9e1a1a" rx="1" ry="1" class="b4" />
    <rect x="202.0" y="62.0" width="6" height="6" fill="#5c0f0f" rx="1" ry="1" class="b3" />
    <rect x="202.0" y="72.0" width="6" height="6" fill="#5c0f0f" rx="1" ry="1" class="b2" />
    <rect x="202.0" y="92.0" width="6" height="6" fill="#d82828" rx="1" ry="1" class="b2" />
    <rect x="202.0" y="102.0" width="6" height="6" fill="#d82828" rx="1" ry="1" class="b3" />
    <rect x="202.0" y="112.0" width="6" height="6" fill="#d82828" rx="1" ry="1" class="b3" />
    <rect x="212.0" y="52.0" width="6" height="6" fill="#d82828" rx="1" ry="1" class="b4" />
    <rect x="212.0" y="62.0" width="6" height="6" fill="#9e1a1a" rx="1" ry="1" class="b4" />
    <rect x="212.0" y="92.0" width="6" height="6" fill="#d82828" rx="1" ry="1" class="b1" />
    <rect x="212.0" y="102.0" width="6" height="6" fill="#d82828" rx="1" ry="1" class="b2" />
    <rect x="212.0" y="112.0" width="6" height="6" fill="#9e1a1a" rx="1" ry="1" class="b1" />
    <rect x="222.0" y="42.0" width="6" height="6" fill="#d82828" rx="1" ry="1" class="b4" />
    <rect x="222.0" y="52.0" width="6" height="6" fill="#9e1a1a" rx="1" ry="1" class="b4" />
    <rect x="222.0" y="82.0" width="6" height="6" fill="#d82828" rx="1" ry="1" class="b2" />
    <rect x="222.0" y="92.0" width="6" height="6" fill="#9e1a1a" rx="1" ry="1" class="b2" />
    <rect x="222.0" y="102.0" width="6" height="6" fill="#d82828" rx="1" ry="1" class="b2" />
    <rect x="222.0" y="112.0" width="6" height="6" fill="#5c0f0f" rx="1" ry="1" class="b2" />
    <rect x="232.0" y="42.0" width="6" height="6" fill="#9e1a1a" rx="1" ry="1" class="b4" />
    <rect x="232.0" y="72.0" width="6" height="6" fill="#d82828" rx="1" ry="1" class="b1" />
    <rect x="232.0" y="92.0" width="6" height="6" fill="#d82828" rx="1" ry="1" class="b2" />
    <rect x="232.0" y="102.0" width="6" height="6" fill="#d82828" rx="1" ry="1" class="b1" />
    <rect x="232.0" y="112.0" width="6" height="6" fill="#d82828" rx="1" ry="1" class="b4" />
    <rect x="242.0" y="42.0" width="6" height="6" fill="#5c0f0f" rx="1" ry="1" class="b3" />
    <rect x="242.0" y="62.0" width="6" height="6" fill="#9e1a1a" rx="1" ry="1" class="b2" />
    <rect x="242.0" y="72.0" width="6" height="6" fill="#d82828" rx="1" ry="1" class="b4" />
    <rect x="242.0" y="82.0" width="6" height="6" fill="#d82828" rx="1" ry="1" class="b1" />
    <rect x="242.0" y="92.0" width="6" height="6" fill="#5c0f0f" rx="1" ry="1" class="b4" />
    <rect x="242.0" y="102.0" width="6" height="6" fill="#9e1a1a" rx="1" ry="1" class="b2" />
    <rect x="242.0" y="112.0" width="6" height="6" fill="#d82828" rx="1" ry="1" class="b2" />
    <rect x="252.0" y="72.0" width="6" height="6" fill="#5c0f0f" rx="1" ry="1" class="b2" />
    <rect x="252.0" y="82.0" width="6" height="6" fill="#ff4d4d" rx="1" ry="1" class="b2" />
    <rect x="252.0" y="92.0" width="6" height="6" fill="#5c0f0f" rx="1" ry="1" class="b2" />
    <rect x="252.0" y="102.0" width="6" height="6" fill="#d82828" rx="1" ry="1" class="b3" />
    <rect x="252.0" y="112.0" width="6" height="6" fill="#d82828" rx="1" ry="1" class="b1" />
    <rect x="262.0" y="12.0" width="6" height="6" fill="#9e1a1a" rx="1" ry="1" class="b2" />
    <rect x="262.0" y="72.0" width="6" height="6" fill="#ff4d4d" rx="1" ry="1" class="b4" />
    <rect x="262.0" y="82.0" width="6" height="6" fill="#d82828" rx="1" ry="1" class="b1" />
    <rect x="262.0" y="92.0" width="6" height="6" fill="#d82828" rx="1" ry="1" class="b3" />
    <rect x="262.0" y="102.0" width="6" height="6" fill="#5c0f0f" rx="1" ry="1" class="b1" />
    <rect x="262.0" y="112.0" width="6" height="6" fill="#d82828" rx="1" ry="1" class="b2" />
    <rect x="272.0" y="82.0" width="6" height="6" fill="#d82828" rx="1" ry="1" class="b4" />
    <rect x="272.0" y="92.0" width="6" height="6" fill="#9e1a1a" rx="1" ry="1" class="b3" />
    <rect x="272.0" y="102.0" width="6" height="6" fill="#d82828" rx="1" ry="1" class="b3" />
    <rect x="272.0" y="112.0" width="6" height="6" fill="#9e1a1a" rx="1" ry="1" class="b1" />
    <rect x="282.0" y="62.0" width="6" height="6" fill="#9e1a1a" rx="1" ry="1" class="b4" />
    <rect x="282.0" y="72.0" width="6" height="6" fill="#9e1a1a" rx="1" ry="1" class="b4" />
    <rect x="282.0" y="82.0" width="6" height="6" fill="#d82828" rx="1" ry="1" class="b3" />
    <rect x="282.0" y="92.0" width="6" height="6" fill="#d82828" rx="1" ry="1" class="b4" />
    <rect x="282.0" y="102.0" width="6" height="6" fill="#ff4d4d" rx="1" ry="1" class="b4" />
    <rect x="282.0" y="112.0" width="6" height="6" fill="#d82828" rx="1" ry="1" class="b3" />
    <rect x="292.0" y="62.0" width="6" height="6" fill="#9e1a1a" rx="1" ry="1" class="b1" />
    <rect x="292.0" y="82.0" width="6" height="6" fill="#ff4d4d" rx="1" ry="1" class="b3" />
    <rect x="292.0" y="92.0" width="6" height="6" fill="#d82828" rx="1" ry="1" class="b2" />
    <rect x="292.0" y="102.0" width="6" height="6" fill="#d82828" rx="1" ry="1" class="b1" />
    <rect x="292.0" y="112.0" width="6" height="6" fill="#d82828" rx="1" ry="1" class="b2" />
    <rect x="302.0" y="42.0" width="6" height="6" fill="#9e1a1a" rx="1" ry="1" class="b1" />
    <rect x="302.0" y="52.0" width="6" height="6" fill="#5c0f0f" rx="1" ry="1" class="b2" />
    <rect x="302.0" y="62.0" width="6" height="6" fill="#9e1a1a" rx="1" ry="1" class="b1" />
    <rect x="302.0" y="72.0" width="6" height="6" fill="#d82828" rx="1" ry="1" class="b4" />
    <rect x="302.0" y="82.0" width="6" height="6" fill="#d82828" rx="1" ry="1" class="b3" />
    <rect x="302.0" y="92.0" width="6" height="6" fill="#d82828" rx="1" ry="1" class="b3" />
    <rect x="302.0" y="102.0" width="6" height="6" fill="#d82828" rx="1" ry="1" class="b1" />
    <rect x="302.0" y="112.0" width="6" height="6" fill="#d82828" rx="1" ry="1" class="b4" />
    <rect x="312.0" y="52.0" width="6" height="6" fill="#d82828" rx="1" ry="1" class="b4" />
    <rect x="312.0" y="62.0" width="6" height="6" fill="#5c0f0f" rx="1" ry="1" class="b1" />
    <rect x="312.0" y="72.0" width="6" height="6" fill="#9e1a1a" rx="1" ry="1" class="b4" />
    <rect x="312.0" y="82.0" width="6" height="6" fill="#d82828" rx="1" ry="1" class="b2" />
    <rect x="312.0" y="92.0" width="6" height="6" fill="#d82828" rx="1" ry="1" class="b4" />
    <rect x="312.0" y="102.0" width="6" height="6" fill="#ff4d4d" rx="1" ry="1" class="b2" />
    <rect x="312.0" y="112.0" width="6" height="6" fill="#d82828" rx="1" ry="1" class="b1" />
    <rect x="322.0" y="52.0" width="6" height="6" fill="#9e1a1a" rx="1" ry="1" class="b2" />
    <rect x="322.0" y="82.0" width="6" height="6" fill="#d82828" rx="1" ry="1" class="b2" />
    <rect x="322.0" y="92.0" width="6" height="6" fill="#d82828" rx="1" ry="1" class="b1" />
    <rect x="322.0" y="102.0" width="6" height="6" fill="#d82828" rx="1" ry="1" class="b3" />
    <rect x="322.0" y="112.0" width="6" height="6" fill="#d82828" rx="1" ry="1" class="b1" />
    <rect x="332.0" y="62.0" width="6" height="6" fill="#9e1a1a" rx="1" ry="1" class="b3" />
    <rect x="332.0" y="82.0" width="6" height="6" fill="#ff4d4d" rx="1" ry="1" class="b1" />
    <rect x="332.0" y="92.0" width="6" height="6" fill="#9e1a1a" rx="1" ry="1" class="b3" />
    <rect x="332.0" y="102.0" width="6" height="6" fill="#d82828" rx="1" ry="1" class="b2" />
    <rect x="332.0" y="112.0" width="6" height="6" fill="#ff4d4d" rx="1" ry="1" class="b2" />
    <rect x="342.0" y="72.0" width="6" height="6" fill="#9e1a1a" rx="1" ry="1" class="b4" />
    <rect x="342.0" y="82.0" width="6" height="6" fill="#d82828" rx="1" ry="1" class="b2" />
    <rect x="342.0" y="92.0" width="6" height="6" fill="#ff4d4d" rx="1" ry="1" class="b4" />
    <rect x="342.0" y="102.0" width="6" height="6" fill="#d82828" rx="1" ry="1" class="b4" />
    <rect x="342.0" y="112.0" width="6" height="6" fill="#d82828" rx="1" ry="1" class="b1" />
    <rect x="352.0" y="32.0" width="6" height="6" fill="#9e1a1a" rx="1" ry="1" class="b3" />
    <rect x="352.0" y="62.0" width="6" height="6" fill="#d82828" rx="1" ry="1" class="b2" />
    <rect x="352.0" y="72.0" width="6" height="6" fill="#d82828" rx="1" ry="1" class="b4" />
    <rect x="352.0" y="82.0" width="6" height="6" fill="#d82828" rx="1" ry="1" class="b3" />
    <rect x="352.0" y="92.0" width="6" height="6" fill="#9e1a1a" rx="1" ry="1" class="b3" />
    <rect x="352.0" y="102.0" width="6" height="6" fill="#d82828" rx="1" ry="1" class="b3" />
    <rect x="352.0" y="112.0" width="6" height="6" fill="#ff4d4d" rx="1" ry="1" class="b3" />
    <rect x="362.0" y="72.0" width="6" height="6" fill="#d82828" rx="1" ry="1" class="b2" />
    <rect x="362.0" y="82.0" width="6" height="6" fill="#d82828" rx="1" ry="1" class="b2" />
    <rect x="362.0" y="92.0" width="6" height="6" fill="#ff4d4d" rx="1" ry="1" class="b3" />
    <rect x="362.0" y="102.0" width="6" height="6" fill="#d82828" rx="1" ry="1" class="b1" />
    <rect x="362.0" y="112.0" width="6" height="6" fill="#ff4d4d" rx="1" ry="1" class="b4" />
    <rect x="372.0" y="72.0" width="6" height="6" fill="#5c0f0f" rx="1" ry="1" class="b1" />
    <rect x="372.0" y="92.0" width="6" height="6" fill="#d82828" rx="1" ry="1" class="b3" />
    <rect x="372.0" y="102.0" width="6" height="6" fill="#9e1a1a" rx="1" ry="1" class="b1" />
    <rect x="372.0" y="112.0" width="6" height="6" fill="#d82828" rx="1" ry="1" class="b2" />
    <rect x="382.0" y="72.0" width="6" height="6" fill="#9e1a1a" rx="1" ry="1" class="b3" />
    <rect x="382.0" y="82.0" width="6" height="6" fill="#9e1a1a" rx="1" ry="1" class="b3" />
    <rect x="382.0" y="92.0" width="6" height="6" fill="#d82828" rx="1" ry="1" class="b1" />
    <rect x="382.0" y="102.0" width="6" height="6" fill="#9e1a1a" rx="1" ry="1" class="b3" />
    <rect x="382.0" y="112.0" width="6" height="6" fill="#d82828" rx="1" ry="1" class="b4" />
    <rect x="392.0" y="62.0" width="6" height="6" fill="#d82828" rx="1" ry="1" class="b3" />
    <rect x="392.0" y="72.0" width="6" height="6" fill="#9e1a1a" rx="1" ry="1" class="b2" />
    <rect x="392.0" y="82.0" width="6" height="6" fill="#d82828" rx="1" ry="1" class="b2" />
    <rect x="392.0" y="92.0" width="6" height="6" fill="#ff4d4d" rx="1" ry="1" class="b1" />
    <rect x="392.0" y="102.0" width="6" height="6" fill="#d82828" rx="1" ry="1" class="b4" />
    <rect x="392.0" y="112.0" width="6" height="6" fill="#d82828" rx="1" ry="1" class="b2" />
    <rect x="402.0" y="52.0" width="6" height="6" fill="#d82828" rx="1" ry="1" class="b1" />
    <rect x="402.0" y="72.0" width="6" height="6" fill="#5c0f0f" rx="1" ry="1" class="b3" />
    <rect x="402.0" y="82.0" width="6" height="6" fill="#d82828" rx="1" ry="1" class="b1" />
    <rect x="402.0" y="92.0" width="6" height="6" fill="#9e1a1a" rx="1" ry="1" class="b3" />
    <rect x="402.0" y="102.0" width="6" height="6" fill="#9e1a1a" rx="1" ry="1" class="b3" />
    <rect x="402.0" y="112.0" width="6" height="6" fill="#9e1a1a" rx="1" ry="1" class="b4" />
    <rect x="412.0" y="42.0" width="6" height="6" fill="#9e1a1a" rx="1" ry="1" class="b1" />
    <rect x="412.0" y="52.0" width="6" height="6" fill="#9e1a1a" rx="1" ry="1" class="b1" />
    <rect x="412.0" y="62.0" width="6" height="6" fill="#5c0f0f" rx="1" ry="1" class="b4" />
    <rect x="412.0" y="72.0" width="6" height="6" fill="#9e1a1a" rx="1" ry="1" class="b2" />
    <rect x="412.0" y="82.0" width="6" height="6" fill="#d82828" rx="1" ry="1" class="b3" />
    <rect x="412.0" y="92.0" width="6" height="6" fill="#ff4d4d" rx="1" ry="1" class="b3" />
    <rect x="412.0" y="102.0" width="6" height="6" fill="#ff4d4d" rx="1" ry="1" class="b4" />
    <rect x="412.0" y="112.0" width="6" height="6" fill="#9e1a1a" rx="1" ry="1" class="b4" />
    <rect x="422.0" y="62.0" width="6" height="6" fill="#9e1a1a" rx="1" ry="1" class="b4" />
    <rect x="422.0" y="92.0" width="6" height="6" fill="#d82828" rx="1" ry="1" class="b3" />
    <rect x="422.0" y="102.0" width="6" height="6" fill="#d82828" rx="1" ry="1" class="b3" />
    <rect x="422.0" y="112.0" width="6" height="6" fill="#d82828" rx="1" ry="1" class="b4" />
    <rect x="432.0" y="72.0" width="6" height="6" fill="#9e1a1a" rx="1" ry="1" class="b2" />
    <rect x="432.0" y="82.0" width="6" height="6" fill="#9e1a1a" rx="1" ry="1" class="b2" />
    <rect x="432.0" y="92.0" width="6" height="6" fill="#d82828" rx="1" ry="1" class="b3" />
    <rect x="432.0" y="102.0" width="6" height="6" fill="#d82828" rx="1" ry="1" class="b3" />
    <rect x="432.0" y="112.0" width="6" height="6" fill="#d82828" rx="1" ry="1" class="b3" />
    <rect x="442.0" y="52.0" width="6" height="6" fill="#d82828" rx="1" ry="1" class="b1" />
    <rect x="442.0" y="72.0" width="6" height="6" fill="#d82828" rx="1" ry="1" class="b1" />
    <rect x="442.0" y="82.0" width="6" height="6" fill="#9e1a1a" rx="1" ry="1" class="b4" />
    <rect x="442.0" y="92.0" width="6" height="6" fill="#9e1a1a" rx="1" ry="1" class="b3" />
    <rect x="442.0" y="102.0" width="6" height="6" fill="#d82828" rx="1" ry="1" class="b4" />
    <rect x="442.0" y="112.0" width="6" height="6" fill="#ff4d4d" rx="1" ry="1" class="b4" />
    <rect x="452.0" y="72.0" width="6" height="6" fill="#d82828" rx="1" ry="1" class="b3" />
    <rect x="452.0" y="82.0" width="6" height="6" fill="#d82828" rx="1" ry="1" class="b1" />
    <rect x="452.0" y="92.0" width="6" height="6" fill="#d82828" rx="1" ry="1" class="b2" />
    <rect x="452.0" y="102.0" width="6" height="6" fill="#ff4d4d" rx="1" ry="1" class="b3" />
    <rect x="452.0" y="112.0" width="6" height="6" fill="#d82828" rx="1" ry="1" class="b3" />
    <rect x="462.0" y="82.0" width="6" height="6" fill="#ff4d4d" rx="1" ry="1" class="b1" />
    <rect x="462.0" y="92.0" width="6" height="6" fill="#d82828" rx="1" ry="1" class="b3" />
    <rect x="462.0" y="102.0" width="6" height="6" fill="#9e1a1a" rx="1" ry="1" class="b4" />
    <rect x="462.0" y="112.0" width="6" height="6" fill="#ff4d4d" rx="1" ry="1" class="b2" />
    <rect x="472.0" y="72.0" width="6" height="6" fill="#d82828" rx="1" ry="1" class="b2" />
    <rect x="472.0" y="82.0" width="6" height="6" fill="#d82828" rx="1" ry="1" class="b1" />
    <rect x="472.0" y="92.0" width="6" height="6" fill="#d82828" rx="1" ry="1" class="b2" />
    <rect x="472.0" y="102.0" width="6" height="6" fill="#ff4d4d" rx="1" ry="1" class="b3" />
    <rect x="472.0" y="112.0" width="6" height="6" fill="#ff4d4d" rx="1" ry="1" class="b3" />
    <rect x="482.0" y="82.0" width="6" height="6" fill="#ff4d4d" rx="1" ry="1" class="b3" />
    <rect x="482.0" y="92.0" width="6" height="6" fill="#9e1a1a" rx="1" ry="1" class="b4" />
    <rect x="482.0" y="102.0" width="6" height="6" fill="#ff4d4d" rx="1" ry="1" class="b4" />
    <rect x="482.0" y="112.0" width="6" height="6" fill="#d82828" rx="1" ry="1" class="b3" />
    <rect x="492.0" y="72.0" width="6" height="6" fill="#5c0f0f" rx="1" ry="1" class="b2" />
    <rect x="492.0" y="92.0" width="6" height="6" fill="#d82828" rx="1" ry="1" class="b2" />
    <rect x="492.0" y="102.0" width="6" height="6" fill="#d82828" rx="1" ry="1" class="b2" />
    <rect x="492.0" y="112.0" width="6" height="6" fill="#d82828" rx="1" ry="1" class="b4" />
    <rect x="502.0" y="52.0" width="6" height="6" fill="#5c0f0f" rx="1" ry="1" class="b3" />
    <rect x="502.0" y="62.0" width="6" height="6" fill="#9e1a1a" rx="1" ry="1" class="b4" />
    <rect x="502.0" y="82.0" width="6" height="6" fill="#5c0f0f" rx="1" ry="1" class="b4" />
    <rect x="502.0" y="92.0" width="6" height="6" fill="#ff4d4d" rx="1" ry="1" class="b4" />
    <rect x="502.0" y="102.0" width="6" height="6" fill="#ff4d4d" rx="1" ry="1" class="b4" />
    <rect x="502.0" y="112.0" width="6" height="6" fill="#d82828" rx="1" ry="1" class="b4" />
    <rect x="512.0" y="22.0" width="6" height="6" fill="#5c0f0f" rx="1" ry="1" class="b2" />
    <rect x="512.0" y="62.0" width="6" height="6" fill="#d82828" rx="1" ry="1" class="b4" />
    <rect x="512.0" y="72.0" width="6" height="6" fill="#9e1a1a" rx="1" ry="1" class="b1" />
    <rect x="512.0" y="82.0" width="6" height="6" fill="#9e1a1a" rx="1" ry="1" class="b1" />
    <rect x="512.0" y="92.0" width="6" height="6" fill="#9e1a1a" rx="1" ry="1" class="b4" />
    <rect x="512.0" y="102.0" width="6" height="6" fill="#ff4d4d" rx="1" ry="1" class="b1" />
    <rect x="512.0" y="112.0" width="6" height="6" fill="#9e1a1a" rx="1" ry="1" class="b4" />
    <rect x="522.0" y="62.0" width="6" height="6" fill="#9e1a1a" rx="1" ry="1" class="b3" />
    <rect x="522.0" y="82.0" width="6" height="6" fill="#5c0f0f" rx="1" ry="1" class="b4" />
    <rect x="522.0" y="92.0" width="6" height="6" fill="#d82828" rx="1" ry="1" class="b3" />
    <rect x="522.0" y="102.0" width="6" height="6" fill="#5c0f0f" rx="1" ry="1" class="b2" />
    <rect x="522.0" y="112.0" width="6" height="6" fill="#d82828" rx="1" ry="1" class="b4" />
    <rect x="532.0" y="82.0" width="6" height="6" fill="#d82828" rx="1" ry="1" class="b4" />
    <rect x="532.0" y="92.0" width="6" height="6" fill="#d82828" rx="1" ry="1" class="b4" />
    <rect x="532.0" y="102.0" width="6" height="6" fill="#d82828" rx="1" ry="1" class="b3" />
    <rect x="532.0" y="112.0" width="6" height="6" fill="#5c0f0f" rx="1" ry="1" class="b3" />
    <rect x="542.0" y="72.0" width="6" height="6" fill="#9e1a1a" rx="1" ry="1" class="b1" />
    <rect x="542.0" y="92.0" width="6" height="6" fill="#d82828" rx="1" ry="1" class="b3" />
    <rect x="542.0" y="102.0" width="6" height="6" fill="#d82828" rx="1" ry="1" class="b2" />
    <rect x="542.0" y="112.0" width="6" height="6" fill="#9e1a1a" rx="1" ry="1" class="b3" />
    <rect x="552.0" y="82.0" width="6" height="6" fill="#d82828" rx="1" ry="1" class="b4" />
    <rect x="552.0" y="92.0" width="6" height="6" fill="#9e1a1a" rx="1" ry="1" class="b3" />
    <rect x="552.0" y="102.0" width="6" height="6" fill="#d82828" rx="1" ry="1" class="b2" />
    <rect x="552.0" y="112.0" width="6" height="6" fill="#d82828" rx="1" ry="1" class="b1" />
    <rect x="562.0" y="72.0" width="6" height="6" fill="#d82828" rx="1" ry="1" class="b2" />
    <rect x="562.0" y="82.0" width="6" height="6" fill="#d82828" rx="1" ry="1" class="b4" />
    <rect x="562.0" y="92.0" width="6" height="6" fill="#d82828" rx="1" ry="1" class="b2" />
    <rect x="562.0" y="102.0" width="6" height="6" fill="#d82828" rx="1" ry="1" class="b3" />
    <rect x="562.0" y="112.0" width="6" height="6" fill="#d82828" rx="1" ry="1" class="b3" />
    <rect x="572.0" y="82.0" width="6" height="6" fill="#5c0f0f" rx="1" ry="1" class="b2" />
    <rect x="572.0" y="92.0" width="6" height="6" fill="#ff4d4d" rx="1" ry="1" class="b2" />
    <rect x="572.0" y="102.0" width="6" height="6" fill="#d82828" rx="1" ry="1" class="b1" />
    <rect x="572.0" y="112.0" width="6" height="6" fill="#d82828" rx="1" ry="1" class="b1" />
    <rect x="582.0" y="82.0" width="6" height="6" fill="#ff4d4d" rx="1" ry="1" class="b1" />
    <rect x="582.0" y="92.0" width="6" height="6" fill="#9e1a1a" rx="1" ry="1" class="b4" />
    <rect x="582.0" y="102.0" width="6" height="6" fill="#9e1a1a" rx="1" ry="1" class="b4" />
    <rect x="582.0" y="112.0" width="6" height="6" fill="#ff4d4d" rx="1" ry="1" class="b3" />
    <rect x="592.0" y="82.0" width="6" height="6" fill="#9e1a1a" rx="1" ry="1" class="b2" />
    <rect x="592.0" y="92.0" width="6" height="6" fill="#ff4d4d" rx="1" ry="1" class="b3" />
    <rect x="592.0" y="102.0" width="6" height="6" fill="#9e1a1a" rx="1" ry="1" class="b4" />
    <rect x="592.0" y="112.0" width="6" height="6" fill="#d82828" rx="1" ry="1" class="b3" />
    <rect x="602.0" y="82.0" width="6" height="6" fill="#9e1a1a" rx="1" ry="1" class="b1" />
    <rect x="602.0" y="92.0" width="6" height="6" fill="#ff4d4d" rx="1" ry="1" class="b1" />
    <rect x="602.0" y="102.0" width="6" height="6" fill="#d82828" rx="1" ry="1" class="b4" />
    <rect x="602.0" y="112.0" width="6" height="6" fill="#d82828" rx="1" ry="1" class="b2" />
    <rect x="612.0" y="82.0" width="6" height="6" fill="#5c0f0f" rx="1" ry="1" class="b1" />
    <rect x="612.0" y="92.0" width="6" height="6" fill="#d82828" rx="1" ry="1" class="b3" />
    <rect x="612.0" y="102.0" width="6" height="6" fill="#d82828" rx="1" ry="1" class="b4" />
    <rect x="612.0" y="112.0" width="6" height="6" fill="#d82828" rx="1" ry="1" class="b3" />
    <rect x="622.0" y="72.0" width="6" height="6" fill="#5c0f0f" rx="1" ry="1" class="b2" />
    <rect x="622.0" y="82.0" width="6" height="6" fill="#9e1a1a" rx="1" ry="1" class="b1" />
    <rect x="622.0" y="92.0" width="6" height="6" fill="#9e1a1a" rx="1" ry="1" class="b2" />
    <rect x="622.0" y="102.0" width="6" height="6" fill="#d82828" rx="1" ry="1" class="b2" />
    <rect x="622.0" y="112.0" width="6" height="6" fill="#ff4d4d" rx="1" ry="1" class="b1" />
    <rect x="632.0" y="52.0" width="6" height="6" fill="#ff4d4d" rx="1" ry="1" class="b1" />
    <rect x="632.0" y="62.0" width="6" height="6" fill="#5c0f0f" rx="1" ry="1" class="b2" />
    <rect x="632.0" y="92.0" width="6" height="6" fill="#ff4d4d" rx="1" ry="1" class="b1" />
    <rect x="632.0" y="102.0" width="6" height="6" fill="#d82828" rx="1" ry="1" class="b2" />
    <rect x="632.0" y="112.0" width="6" height="6" fill="#ff4d4d" rx="1" ry="1" class="b2" />
    <rect x="642.0" y="62.0" width="6" height="6" fill="#d82828" rx="1" ry="1" class="b1" />
    <rect x="642.0" y="82.0" width="6" height="6" fill="#d82828" rx="1" ry="1" class="b2" />
    <rect x="642.0" y="92.0" width="6" height="6" fill="#d82828" rx="1" ry="1" class="b2" />
    <rect x="642.0" y="102.0" width="6" height="6" fill="#d82828" rx="1" ry="1" class="b1" />
    <rect x="642.0" y="112.0" width="6" height="6" fill="#d82828" rx="1" ry="1" class="b1" />
    <rect x="652.0" y="52.0" width="6" height="6" fill="#9e1a1a" rx="1" ry="1" class="b4" />
    <rect x="652.0" y="62.0" width="6" height="6" fill="#d82828" rx="1" ry="1" class="b2" />
    <rect x="652.0" y="82.0" width="6" height="6" fill="#d82828" rx="1" ry="1" class="b4" />
    <rect x="652.0" y="92.0" width="6" height="6" fill="#9e1a1a" rx="1" ry="1" class="b4" />
    <rect x="652.0" y="102.0" width="6" height="6" fill="#d82828" rx="1" ry="1" class="b2" />
    <rect x="652.0" y="112.0" width="6" height="6" fill="#d82828" rx="1" ry="1" class="b4" />
    <rect x="662.0" y="72.0" width="6" height="6" fill="#9e1a1a" rx="1" ry="1" class="b1" />
    <rect x="662.0" y="82.0" width="6" height="6" fill="#ff4d4d" rx="1" ry="1" class="b3" />
    <rect x="662.0" y="92.0" width="6" height="6" fill="#9e1a1a" rx="1" ry="1" class="b3" />
    <rect x="662.0" y="102.0" width="6" height="6" fill="#d82828" rx="1" ry="1" class="b3" />
    <rect x="662.0" y="112.0" width="6" height="6" fill="#d82828" rx="1" ry="1" class="b1" />
    <rect x="672.0" y="32.0" width="6" height="6" fill="#5c0f0f" rx="1" ry="1" class="b1" />
    <rect x="672.0" y="52.0" width="6" height="6" fill="#9e1a1a" rx="1" ry="1" class="b1" />
    <rect x="672.0" y="62.0" width="6" height="6" fill="#9e1a1a" rx="1" ry="1" class="b2" />
    <rect x="672.0" y="72.0" width="6" height="6" fill="#9e1a1a" rx="1" ry="1" class="b4" />
    <rect x="672.0" y="82.0" width="6" height="6" fill="#d82828" rx="1" ry="1" class="b4" />
    <rect x="672.0" y="92.0" width="6" height="6" fill="#ff4d4d" rx="1" ry="1" class="b4" />
    <rect x="672.0" y="102.0" width="6" height="6" fill="#d82828" rx="1" ry="1" class="b1" />
    <rect x="672.0" y="112.0" width="6" height="6" fill="#d82828" rx="1" ry="1" class="b2" />
    <rect x="682.0" y="82.0" width="6" height="6" fill="#d82828" rx="1" ry="1" class="b1" />
    <rect x="682.0" y="92.0" width="6" height="6" fill="#ff4d4d" rx="1" ry="1" class="b1" />
    <rect x="682.0" y="102.0" width="6" height="6" fill="#ff4d4d" rx="1" ry="1" class="b4" />
    <rect x="682.0" y="112.0" width="6" height="6" fill="#ff4d4d" rx="1" ry="1" class="b2" />
    <rect x="692.0" y="62.0" width="6" height="6" fill="#5c0f0f" rx="1" ry="1" class="b4" />
    <rect x="692.0" y="72.0" width="6" height="6" fill="#9e1a1a" rx="1" ry="1" class="b3" />
    <rect x="692.0" y="82.0" width="6" height="6" fill="#9e1a1a" rx="1" ry="1" class="b3" />
    <rect x="692.0" y="92.0" width="6" height="6" fill="#9e1a1a" rx="1" ry="1" class="b1" />
    <rect x="692.0" y="102.0" width="6" height="6" fill="#9e1a1a" rx="1" ry="1" class="b3" />
    <rect x="692.0" y="112.0" width="6" height="6" fill="#d82828" rx="1" ry="1" class="b4" />
    <rect x="702.0" y="52.0" width="6" height="6" fill="#9e1a1a" rx="1" ry="1" class="b1" />
    <rect x="702.0" y="82.0" width="6" height="6" fill="#9e1a1a" rx="1" ry="1" class="b4" />
    <rect x="702.0" y="92.0" width="6" height="6" fill="#9e1a1a" rx="1" ry="1" class="b3" />
    <rect x="702.0" y="102.0" width="6" height="6" fill="#ff4d4d" rx="1" ry="1" class="b1" />
    <rect x="702.0" y="112.0" width="6" height="6" fill="#ff4d4d" rx="1" ry="1" class="b1" />
    <rect x="712.0" y="52.0" width="6" height="6" fill="#9e1a1a" rx="1" ry="1" class="b4" />
    <rect x="712.0" y="62.0" width="6" height="6" fill="#d82828" rx="1" ry="1" class="b2" />
    <rect x="712.0" y="82.0" width="6" height="6" fill="#9e1a1a" rx="1" ry="1" class="b2" />
    <rect x="712.0" y="92.0" width="6" height="6" fill="#d82828" rx="1" ry="1" class="b1" />
    <rect x="712.0" y="102.0" width="6" height="6" fill="#ff4d4d" rx="1" ry="1" class="b1" />
    <rect x="712.0" y="112.0" width="6" height="6" fill="#d82828" rx="1" ry="1" class="b4" />
    <rect x="722.0" y="62.0" width="6" height="6" fill="#d82828" rx="1" ry="1" class="b4" />
    <rect x="722.0" y="72.0" width="6" height="6" fill="#9e1a1a" rx="1" ry="1" class="b2" />
    <rect x="722.0" y="82.0" width="6" height="6" fill="#5c0f0f" rx="1" ry="1" class="b2" />
    <rect x="722.0" y="92.0" width="6" height="6" fill="#ff4d4d" rx="1" ry="1" class="b2" />
    <rect x="722.0" y="102.0" width="6" height="6" fill="#d82828" rx="1" ry="1" class="b2" />
    <rect x="722.0" y="112.0" width="6" height="6" fill="#d82828" rx="1" ry="1" class="b1" />
    <rect x="732.0" y="42.0" width="6" height="6" fill="#9e1a1a" rx="1" ry="1" class="b2" />
    <rect x="732.0" y="72.0" width="6" height="6" fill="#5c0f0f" rx="1" ry="1" class="b4" />
    <rect x="732.0" y="92.0" width="6" height="6" fill="#d82828" rx="1" ry="1" class="b3" />
    <rect x="732.0" y="102.0" width="6" height="6" fill="#ff4d4d" rx="1" ry="1" class="b1" />
    <rect x="732.0" y="112.0" width="6" height="6" fill="#d82828" rx="1" ry="1" class="b4" />
    <rect x="742.0" y="82.0" width="6" height="6" fill="#ff4d4d" rx="1" ry="1" class="b4" />
    <rect x="742.0" y="92.0" width="6" height="6" fill="#d82828" rx="1" ry="1" class="b1" />
    <rect x="742.0" y="102.0" width="6" height="6" fill="#d82828" rx="1" ry="1" class="b1" />
    <rect x="742.0" y="112.0" width="6" height="6" fill="#d82828" rx="1" ry="1" class="b2" />
    <rect x="752.0" y="42.0" width="6" height="6" fill="#9e1a1a" rx="1" ry="1" class="b3" />
    <rect x="752.0" y="72.0" width="6" height="6" fill="#d82828" rx="1" ry="1" class="b3" />
    <rect x="752.0" y="82.0" width="6" height="6" fill="#d82828" rx="1" ry="1" class="b2" />
    <rect x="752.0" y="112.0" width="6" height="6" fill="#d82828" rx="1" ry="1" class="b1" />
    <rect x="762.0" y="62.0" width="6" height="6" fill="#9e1a1a" rx="1" ry="1" class="b1" />
    <rect x="762.0" y="102.0" width="6" height="6" fill="#5c0f0f" rx="1" ry="1" class="b3" />
    <rect x="772.0" y="12.0" width="6" height="6" fill="#5c0f0f" rx="1" ry="1" class="b3" />
    <rect x="772.0" y="82.0" width="6" height="6" fill="#9e1a1a" rx="1" ry="1" class="b2" />
    <rect x="772.0" y="102.0" width="6" height="6" fill="#d82828" rx="1" ry="1" class="b3" />
    <rect x="772.0" y="112.0" width="6" height="6" fill="#d82828" rx="1" ry="1" class="b1" />
    <rect x="792.0" y="112.0" width="6" height="6" fill="#d82828" rx="1" ry="1" class="b3" />
  </g>
</svg>